<?xml version="1.0" encoding="utf-8"?>
<!-- Generator: Adobe Illustrator 17.0.0, SVG Export Plug-In . SVG Version: 6.00 Build 0)  -->
<!DOCTYPE svg PUBLIC "-//W3C//DTD SVG 1.1//EN" "http://www.w3.org/Graphics/SVG/1.1/DTD/svg11.dtd">
<svg version="1.1" id="Layer_1" xmlns="http://www.w3.org/2000/svg" xmlns:xlink="http://www.w3.org/1999/xlink" x="0px" y="0px"
	 width="232.44px" height="62.36px" viewBox="0 0 232.44 62.36" enable-background="new 0 0 232.44 62.36" xml:space="preserve">
<g>
	<g id="LOGO">
		<path fill-rule="evenodd" clip-rule="evenodd" fill="#ED1C24" d="M39.731,37.2c0,1.655-1.339,2.992-2.989,2.992H6.502
			c-1.65,0-2.988-1.338-2.988-2.992V7.296c0-1.653,1.339-2.99,2.988-2.99h30.241c1.651,0,2.989,1.337,2.989,2.99V37.2z"/>
		<path fill="#ED1C24" d="M60.308,6.311V27.78h-4.876l-0.013-14.494L53.479,27.78h-3.47l-2.034-14.164L47.962,27.78h-4.878V6.311
			h7.23c0.201,1.298,0.421,2.819,0.66,4.57l0.791,5.456l1.291-10.026H60.308z"/>
		<path fill="#ED1C24" d="M67.916,9.116h-5.517V6.311h5.517V9.116z M67.916,27.78h-5.517V10.202h5.517V27.78z"/>
		<polygon fill="#ED1C24" points="81.361,10.201 79.191,17.214 81.997,27.779 76.872,27.779 75.2,20.125 75.186,27.779 
			69.835,27.779 69.835,6.311 75.186,6.311 75.2,15.341 76.872,10.201 		"/>
		<path fill="#ED1C24" d="M88.14,10.201l-0.187,2.316c0.775-1.667,1.898-2.548,3.365-2.647v6.197c-0.974,0-1.695,0.134-2.149,0.398
			c-0.457,0.267-0.74,0.634-0.847,1.107c-0.107,0.473-0.159,1.562-0.159,3.266v6.941h-5.347V10.201H88.14z"/>
		<path fill="#ED1C24" d="M104.642,16.362v4.305c0,1.581-0.079,2.743-0.239,3.479c-0.158,0.739-0.5,1.426-1.021,2.067
			c-0.519,0.639-1.191,1.112-2.008,1.414c-0.815,0.306-1.753,0.458-2.817,0.458c-1.184,0-2.187-0.13-3.013-0.39
			c-0.818-0.261-1.459-0.654-1.911-1.18c-0.46-0.524-0.783-1.161-0.976-1.908c-0.194-0.746-0.291-1.863-0.291-3.357v-4.503
			c0-1.635,0.179-2.91,0.532-3.832c0.35-0.917,0.986-1.655,1.906-2.21c0.922-0.558,2.098-0.835,3.531-0.835
			c1.197,0,2.231,0.18,3.093,0.536c0.863,0.359,1.525,0.825,1.994,1.398c0.473,0.575,0.791,1.168,0.962,1.776
			C104.558,14.189,104.642,15.118,104.642,16.362 M99.293,15.035c0-0.902-0.051-1.469-0.148-1.703
			c-0.099-0.235-0.307-0.353-0.628-0.353c-0.321,0-0.535,0.118-0.642,0.353c-0.104,0.233-0.16,0.801-0.16,1.703v7.94
			c0,0.83,0.056,1.37,0.16,1.624c0.107,0.251,0.318,0.376,0.631,0.376c0.322,0,0.529-0.114,0.636-0.343
			c0.1-0.23,0.151-0.724,0.151-1.486V15.035z"/>
		<polygon fill="#ED1C24" points="106.552,6.311 115.859,6.311 115.859,10.601 112.133,10.601 112.133,14.677 115.625,14.677 
			115.625,18.753 112.133,18.753 112.133,23.491 116.236,23.491 116.236,27.78 106.552,27.78 		"/>
		<rect x="117.687" y="6.313" fill="#ED1C24" width="5.515" height="21.468"/>
		<path fill="#ED1C24" d="M137.241,19.296h-6.931v3.8c0,0.795,0.056,1.306,0.174,1.536c0.114,0.23,0.333,0.343,0.663,0.343
			c0.412,0,0.679-0.151,0.821-0.456c0.134-0.305,0.203-0.898,0.203-1.77v-2.32h5.071v1.298c0,1.087-0.07,1.921-0.208,2.503
			c-0.136,0.583-0.458,1.205-0.961,1.868c-0.504,0.663-1.141,1.16-1.914,1.49c-0.771,0.333-1.741,0.496-2.907,0.496
			c-1.128,0-2.128-0.163-2.99-0.489c-0.87-0.326-1.54-0.774-2.021-1.345c-0.481-0.569-0.814-1.198-1-1.882
			c-0.188-0.683-0.279-1.679-0.279-2.986v-5.126c0-1.538,0.207-2.751,0.619-3.639c0.421-0.887,1.095-1.568,2.041-2.04
			c0.945-0.472,2.033-0.709,3.261-0.709c1.497,0,2.738,0.285,3.713,0.855c0.976,0.571,1.657,1.326,2.052,2.269
			c0.397,0.941,0.595,2.263,0.595,3.969V19.296z M131.863,16.423v-1.286c0-0.907-0.047-1.493-0.142-1.758
			c-0.098-0.265-0.294-0.398-0.596-0.398c-0.369,0-0.596,0.113-0.684,0.338c-0.086,0.225-0.131,0.831-0.131,1.818v1.286H131.863z"/>
		<polygon fill="#ED1C24" points="150.527,10.201 148.358,17.214 151.164,27.779 146.035,27.779 144.363,20.125 144.351,27.779 
			139.005,27.779 139.005,6.311 144.351,6.311 144.363,15.341 146.035,10.201 		"/>
		<path fill="#ED1C24" d="M157.613,7.844v2.781h1.437v2.781h-1.437v9.414c0,1.155,0.057,1.802,0.178,1.935
			c0.119,0.132,0.62,0.198,1.494,0.198v2.828h-2.163c-1.222,0-2.09-0.052-2.612-0.152c-0.523-0.102-0.986-0.334-1.387-0.703
			c-0.393-0.368-0.643-0.786-0.738-1.256c-0.095-0.476-0.15-1.585-0.15-3.333v-8.93h-1.153v-2.781h1.153V7.844H157.613z"/>
		<path fill="#ED1C24" d="M165.577,10.201l-0.191,2.316c0.779-1.667,1.902-2.548,3.373-2.647v6.197
			c-0.974,0-1.695,0.134-2.154,0.398c-0.456,0.267-0.739,0.634-0.846,1.107c-0.103,0.473-0.159,1.562-0.159,3.266v6.941h-5.347
			V10.201H165.577z"/>
		<path fill="#ED1C24" d="M182.081,16.362v4.305c0,1.581-0.076,2.743-0.237,3.479c-0.159,0.739-0.501,1.426-1.02,2.067
			c-0.521,0.639-1.193,1.112-2.009,1.414c-0.819,0.306-1.76,0.458-2.82,0.458c-1.184,0-2.188-0.13-3.01-0.39
			c-0.819-0.261-1.461-0.654-1.917-1.18c-0.456-0.524-0.776-1.161-0.974-1.908c-0.194-0.746-0.291-1.863-0.291-3.357v-4.503
			c0-1.635,0.179-2.91,0.531-3.832c0.355-0.917,0.993-1.655,1.911-2.21c0.915-0.558,2.094-0.835,3.526-0.835
			c1.203,0,2.235,0.18,3.093,0.536c0.863,0.359,1.529,0.825,2.001,1.398c0.464,0.575,0.784,1.168,0.962,1.776
			C181.995,14.189,182.081,15.118,182.081,16.362 M176.733,15.035c0-0.902-0.051-1.469-0.15-1.703
			c-0.096-0.235-0.306-0.353-0.624-0.353c-0.324,0-0.539,0.118-0.644,0.353c-0.111,0.233-0.159,0.801-0.159,1.703v7.94
			c0,0.83,0.048,1.37,0.159,1.624c0.106,0.251,0.316,0.376,0.627,0.376c0.321,0,0.536-0.114,0.639-0.343
			c0.101-0.23,0.152-0.724,0.152-1.486V15.035z"/>
		<path fill="#ED1C24" d="M189.293,10.201l-0.095,1.606c0.385-0.644,0.859-1.128,1.419-1.451c0.557-0.325,1.203-0.487,1.935-0.487
			c0.916,0,1.661,0.219,2.247,0.649c0.579,0.434,0.954,0.982,1.12,1.638c0.168,0.658,0.251,1.759,0.251,3.295v12.327h-5.352V15.594
			c0-1.212-0.036-1.95-0.116-2.215c-0.079-0.267-0.297-0.4-0.655-0.4c-0.376,0-0.612,0.154-0.71,0.459
			c-0.095,0.304-0.14,1.121-0.14,2.447v11.894h-5.352V10.201H189.293z"/>
		<path fill="#ED1C24" d="M203.56,9.116h-5.513V6.311h5.513V9.116z M203.56,27.78h-5.513V10.202h5.513V27.78z"/>
		<polygon fill="#ED1C24" points="217,10.201 214.836,17.214 217.64,27.779 212.513,27.779 210.841,20.125 210.826,27.779 
			205.479,27.779 205.479,6.311 210.826,6.311 210.841,15.341 212.513,10.201 		"/>
		<path fill="#ED1C24" d="M223.217,17.011h-5.02v-1.18c0-1.365,0.155-2.414,0.474-3.152c0.311-0.738,0.942-1.393,1.889-1.957
			c0.945-0.569,2.176-0.851,3.685-0.851c1.819,0,3.184,0.321,4.102,0.963c0.921,0.64,1.475,1.426,1.659,2.358
			c0.187,0.933,0.279,2.852,0.279,5.76v8.829h-5.207v-1.573c-0.325,0.624-0.752,1.095-1.27,1.409
			c-0.515,0.312-1.133,0.469-1.853,0.469c-0.94,0-1.796-0.262-2.586-0.786c-0.78-0.525-1.172-1.672-1.172-3.446v-1.446
			c0-1.313,0.207-2.205,0.627-2.684c0.413-0.476,1.447-1.032,3.098-1.668c1.763-0.688,2.702-1.152,2.831-1.389
			c0.123-0.239,0.187-0.728,0.187-1.464c0-0.921-0.071-1.524-0.211-1.802c-0.138-0.279-0.37-0.42-0.695-0.42
			c-0.368,0-0.593,0.118-0.686,0.355c-0.086,0.233-0.131,0.842-0.131,1.825V17.011z M224.94,19.425
			c-0.873,0.625-1.374,1.149-1.512,1.573c-0.144,0.421-0.211,1.03-0.211,1.822c0,0.91,0.06,1.497,0.18,1.759
			c0.119,0.265,0.361,0.397,0.716,0.397c0.345,0,0.565-0.102,0.67-0.31c0.102-0.207,0.156-0.75,0.156-1.633V19.425z"/>
		<path fill-rule="evenodd" clip-rule="evenodd" fill="#FFFFFF" d="M6.502,5.179c-1.166,0-2.114,0.948-2.114,2.117V37.2
			c0,1.171,0.948,2.12,2.114,2.12h30.241c1.165,0,2.116-0.949,2.116-2.12V7.296c0-1.169-0.95-2.117-2.116-2.117H6.502z M5.339,37.2
			V7.296c0-0.643,0.522-1.166,1.163-1.166h30.241c0.641,0,1.163,0.523,1.163,1.166V37.2c0,0.647-0.522,1.168-1.163,1.168H6.502
			C5.861,38.368,5.339,37.847,5.339,37.2"/>
		<path fill-rule="evenodd" clip-rule="evenodd" fill="#FFFFFF" d="M7.082,26.762h1.26v-2.574h-1.26V26.762z M11.936,15.396
			c-0.771,0-1.266-0.024-1.48-0.075c-0.214-0.048-0.382-0.182-0.504-0.396c-0.118-0.212-0.18-0.547-0.18-1.004H6.953
			c0.044,0.693,0.44,1.221,1.196,1.583l-1.067-0.087v2.486h6.889v-0.063c0-0.878,0.044-1.691,0.122-2.444H11.936z M13.971,26.142
			v-1.954H8.833v2.574h5.141C13.974,26.557,13.971,26.353,13.971,26.142 M13.971,21.116l-2.365-0.007l2.365-0.537v-2.339
			l-3.697,0.996l-3.192-1.013v2.102l2.341,0.791l-2.341,0.012v2.507h6.889V21.116z M9.796,7.679h0.075h0.012H9.796z M7.082,36.818
			h12.285c-1.232-0.551-2.235-1.264-2.991-2.128c-0.122-0.139-0.24-0.275-0.352-0.424H9.541c-0.384,0-0.638-0.001-0.755-0.009
			l-0.303-0.138L8.362,33.82c0-0.183,0.078-0.295,0.235-0.341c0.158-0.04,0.626-0.059,1.412-0.059h5.422
			c-0.422-0.684-0.742-1.409-0.956-2.168l-0.094-0.382H9.874c-0.685,0-1.109-0.027-1.271-0.08c-0.16-0.051-0.241-0.17-0.241-0.353
			c0-0.179,0.081-0.293,0.244-0.339c0.161-0.053,0.586-0.075,1.268-0.075h4.342c-0.114-0.73-0.187-1.577-0.221-2.549H9.41
			c-0.655,0-1.13,0.041-1.421,0.124C7.7,27.68,7.454,27.866,7.253,28.156c-0.202,0.29-0.301,0.659-0.301,1.105
			c0,0.337,0.074,0.643,0.222,0.917c0.151,0.278,0.377,0.524,0.676,0.746c-0.6,0.401-0.898,0.954-0.898,1.655
			c0,0.363,0.074,0.682,0.222,0.962c0.151,0.283,0.377,0.524,0.676,0.726l-0.769-0.044V36.818z M8.317,13.174
			c0.417,0.164,1,0.249,1.741,0.249c0.682,0,3.691-0.047,4.031-0.139c0.155-0.039,0.295-0.094,0.426-0.16
			c0.166-0.585,0.365-1.12,0.603-1.611c0.163-0.336,0.349-0.654,0.553-0.958l0.003-0.03c0-0.493-0.072-0.935-0.212-1.316
			c-0.136-0.381-0.35-0.694-0.644-0.941c-0.29-0.243-0.605-0.401-0.939-0.476c-0.327-0.071-3.173-0.108-4.01-0.113
			C9.312,7.68,8.895,7.721,8.616,7.803c-0.275,0.08-0.541,0.231-0.803,0.448C7.548,8.47,7.338,8.782,7.172,9.185
			c-0.162,0.402-0.24,0.885-0.24,1.447c0,0.669,0.126,1.218,0.38,1.648C7.562,12.71,7.898,13.009,8.317,13.174 M8.501,10.255
			c0.108-0.043,0.365-0.067,0.776-0.067h4.151c0.35,0,0.572,0.025,0.679,0.069c0.105,0.05,0.158,0.148,0.158,0.293l-0.173,0.29
			c-0.114,0.048-0.364,0.073-0.739,0.073H9.277c-0.411,0-0.668-0.025-0.776-0.073c-0.108-0.049-0.16-0.149-0.16-0.295
			C8.341,10.396,8.393,10.301,8.501,10.255"/>
		<path fill-rule="evenodd" clip-rule="evenodd" fill="#FFFFFF" d="M35.655,22.744H23.968v6.153c0,1.288,0.098,2.118,0.287,2.493
			c0.194,0.37,0.562,0.552,1.109,0.552c0.676,0,1.137-0.243,1.36-0.74c0.229-0.495,0.343-1.449,0.343-2.868v-3.76h8.587v2.106
			c0,1.76-0.114,3.114-0.345,4.06c-0.23,0.945-0.77,1.953-1.617,3.03c-0.848,1.075-1.922,1.879-3.221,2.415
			c-1.302,0.537-2.932,0.806-4.894,0.806c-1.906,0-3.584-0.265-5.04-0.794c-1.456-0.528-2.592-1.254-3.403-2.175
			c-0.813-0.921-1.371-1.938-1.685-3.046c-0.313-1.109-0.465-2.721-0.465-4.836v-8.3c0-2.489,0.346-4.45,1.047-5.887
			c0.697-1.436,1.844-2.536,3.435-3.301c1.589-0.767,3.419-1.147,5.485-1.147c2.53,0,4.614,0.459,6.258,1.379
			c1.637,0.923,2.791,2.146,3.453,3.665c0.664,1.524,0.992,3.662,0.992,6.419V22.744z M26.671,18.093v-2.066
			c0-1.465-0.085-2.408-0.249-2.835c-0.171-0.426-0.512-0.64-1.034-0.64c-0.643,0-1.038,0.182-1.191,0.544
			c-0.15,0.362-0.229,1.338-0.229,2.931v2.066H26.671z"/>
		<rect x="139.256" y="31.362" fill="#ED1C24" width="1.77" height="7.511"/>
		<rect x="195.656" y="31.402" fill="#ED1C24" width="1.77" height="7.51"/>
		<path fill="#616264" d="M43.074,31.714c0.544-0.082,1.175-0.143,1.867-0.143c1.255,0,2.148,0.282,2.737,0.834
			c0.612,0.552,0.96,1.343,0.96,2.434c0,1.103-0.347,2.009-0.97,2.626c-0.642,0.633-1.685,0.977-2.997,0.977
			c-0.632,0-1.144-0.024-1.597-0.082V31.714z M43.957,37.697c0.223,0.04,0.541,0.04,0.882,0.04c1.866,0.009,2.878-1.04,2.878-2.865
			c0.011-1.614-0.891-2.609-2.739-2.609c-0.446,0-0.791,0.043-1.021,0.09V37.697z"/>
		<polygon fill="#616264" points="53.251,35.211 50.635,35.211 50.635,37.648 53.563,37.648 53.563,38.379 49.752,38.379 
			49.752,31.621 53.411,31.621 53.411,32.354 50.635,32.354 50.635,34.49 53.251,34.49 		"/>
		<path fill="#616264" d="M56.261,38.379l-2.217-6.757h0.95l1.05,3.329c0.285,0.913,0.535,1.745,0.724,2.527h0.021
			c0.193-0.782,0.46-1.636,0.77-2.518l1.144-3.339h0.934l-2.416,6.757H56.261z"/>
		<polygon fill="#616264" points="63.859,35.211 61.241,35.211 61.241,37.648 64.168,37.648 64.168,38.379 60.359,38.379 
			60.359,31.621 64.018,31.621 64.018,32.354 61.241,32.354 61.241,34.49 63.859,34.49 		"/>
		<polygon fill="#616264" points="65.291,31.623 66.173,31.623 66.173,37.649 69.062,37.649 69.062,38.38 65.291,38.38 		"/>
		<path fill="#616264" d="M72.277,38.489c-1.79,0-3.034-1.381-3.034-3.428c0-2.145,1.325-3.547,3.123-3.547
			c1.86,0,3.053,1.41,3.053,3.418c0,2.319-1.417,3.558-3.13,3.558H72.277z M72.323,37.777c1.379,0,2.163-1.275,2.163-2.807
			c0-1.343-0.702-2.745-2.157-2.745c-1.451,0-2.173,1.353-2.173,2.815c0,1.425,0.78,2.737,2.152,2.737H72.323z"/>
		<path fill="#616264" d="M76.55,31.712c0.422-0.08,0.973-0.142,1.676-0.142c0.865,0,1.494,0.202,1.895,0.561
			c0.369,0.321,0.602,0.815,0.602,1.415c0,0.612-0.179,1.092-0.532,1.442c-0.458,0.492-1.214,0.743-2.065,0.743
			c-0.263,0-0.504-0.012-0.704-0.059v2.707H76.55V31.712z M77.421,34.96c0.192,0.051,0.441,0.071,0.723,0.071
			c1.062,0,1.693-0.523,1.693-1.433c0-0.905-0.631-1.335-1.593-1.335c-0.382,0-0.668,0.043-0.823,0.071V34.96z"/>
		<path fill="#616264" d="M87.578,35.413c-0.048-0.944-0.11-2.088-0.11-2.918H87.45c-0.241,0.781-0.516,1.631-0.853,2.563
			l-1.195,3.278h-0.66l-1.104-3.217c-0.322-0.961-0.58-1.826-0.775-2.625h-0.019c-0.019,0.842-0.07,1.966-0.131,2.984l-0.176,2.899
			h-0.834l0.469-6.755h1.116l1.155,3.266c0.278,0.831,0.499,1.574,0.678,2.277h0.021c0.179-0.683,0.418-1.425,0.723-2.277
			l1.203-3.266h1.112l0.42,6.755h-0.862L87.578,35.413z"/>
		<polygon fill="#616264" points="93.435,35.211 90.82,35.211 90.82,37.648 93.745,37.648 93.745,38.379 89.933,38.379 
			89.933,31.621 93.595,31.621 93.595,32.354 90.82,32.354 90.82,34.49 93.435,34.49 		"/>
		<path fill="#616264" d="M94.878,38.379v-6.757h0.96l2.154,3.42c0.495,0.791,0.894,1.493,1.206,2.197l0.032-0.015
			c-0.08-0.901-0.104-1.722-0.104-2.763v-2.84h0.826v6.757h-0.881l-2.144-3.428c-0.477-0.754-0.926-1.524-1.258-2.257l-0.028,0.011
			c0.047,0.851,0.06,1.663,0.06,2.789v2.885H94.878z"/>
		<polygon fill="#616264" points="102.756,32.362 100.698,32.362 100.698,31.623 105.707,31.623 105.707,32.362 103.638,32.362 
			103.638,38.379 102.756,38.379 		"/>
		<polygon fill="#616264" points="109.455,32.362 107.399,32.362 107.399,31.623 112.403,31.623 112.403,32.362 110.337,32.362 
			110.337,38.379 109.455,38.379 		"/>
		<path fill="#616264" d="M115.52,38.489c-1.792,0-3.039-1.381-3.039-3.428c0-2.145,1.326-3.547,3.129-3.547
			c1.859,0,3.049,1.41,3.049,3.418c0,2.319-1.414,3.558-3.127,3.558H115.52z M115.56,37.777c1.383,0,2.168-1.275,2.168-2.807
			c0-1.343-0.706-2.745-2.158-2.745c-1.45,0-2.172,1.353-2.172,2.815c0,1.425,0.781,2.737,2.157,2.737H115.56z"/>
		<path fill="#616264" d="M122.429,38.489c-1.796,0-3.037-1.381-3.037-3.428c0-2.145,1.32-3.547,3.125-3.547
			c1.858,0,3.051,1.41,3.051,3.418c0,2.319-1.417,3.558-3.129,3.558H122.429z M122.467,37.777c1.385,0,2.167-1.275,2.167-2.807
			c0-1.343-0.699-2.745-2.153-2.745c-1.453,0-2.176,1.353-2.176,2.815c0,1.425,0.778,2.737,2.155,2.737H122.467z"/>
		<polygon fill="#616264" points="126.69,31.623 127.572,31.623 127.572,37.649 130.456,37.649 130.456,38.38 126.69,38.38 		"/>
		<path fill="#616264" d="M131.323,37.318c0.39,0.251,0.949,0.441,1.55,0.441c0.895,0,1.414-0.462,1.414-1.152
			c0-0.623-0.358-0.994-1.272-1.334c-1.104-0.401-1.783-0.986-1.783-1.925c0-1.056,0.874-1.836,2.181-1.836
			c0.686,0,1.195,0.16,1.489,0.331l-0.24,0.711c-0.217-0.131-0.666-0.319-1.272-0.319c-0.925,0-1.276,0.552-1.276,1.009
			c0,0.634,0.414,0.945,1.342,1.306c1.143,0.45,1.712,0.993,1.712,1.985c0,1.042-0.757,1.954-2.352,1.954
			c-0.655,0-1.363-0.198-1.724-0.439L131.323,37.318z"/>
		<path fill="#616264" d="M149.587,38.168c-0.314,0.162-0.965,0.321-1.783,0.321c-1.907,0-3.328-1.203-3.328-3.428
			c0-2.125,1.433-3.547,3.526-3.547c0.834,0,1.374,0.18,1.606,0.298l-0.219,0.711c-0.318-0.16-0.794-0.279-1.358-0.279
			c-1.58,0-2.637,1.015-2.637,2.789c0,1.665,0.954,2.716,2.589,2.716c0.543,0,1.088-0.11,1.43-0.283L149.587,38.168z"/>
		<path fill="#616264" d="M153.085,38.489c-1.792,0-3.035-1.381-3.035-3.428c0-2.145,1.322-3.547,3.129-3.547
			c1.855,0,3.046,1.41,3.046,3.418c0,2.319-1.411,3.558-3.127,3.558H153.085z M153.129,37.777c1.382,0,2.165-1.275,2.165-2.807
			c0-1.343-0.703-2.745-2.157-2.745c-1.457,0-2.175,1.353-2.175,2.815c0,1.425,0.781,2.737,2.153,2.737H153.129z"/>
		<path fill="#616264" d="M163.049,35.413c-0.047-0.944-0.11-2.088-0.11-2.918h-0.016c-0.239,0.781-0.516,1.631-0.853,2.563
			l-1.198,3.278h-0.656l-1.107-3.217c-0.317-0.961-0.577-1.826-0.771-2.625h-0.023c-0.015,0.842-0.066,1.966-0.127,2.984
			l-0.179,2.899h-0.835l0.474-6.755h1.112l1.154,3.266c0.277,0.831,0.496,1.574,0.681,2.277h0.017
			c0.184-0.683,0.422-1.425,0.723-2.277l1.203-3.266h1.113l0.425,6.755h-0.866L163.049,35.413z"/>
		<path fill="#616264" d="M165.418,31.712c0.42-0.08,0.969-0.142,1.672-0.142c0.866,0,1.497,0.202,1.901,0.561
			c0.37,0.321,0.6,0.815,0.6,1.415c0,0.612-0.183,1.092-0.531,1.442c-0.463,0.492-1.218,0.743-2.066,0.743
			c-0.259,0-0.507-0.012-0.7-0.059v2.707h-0.875V31.712z M166.294,34.96c0.184,0.051,0.441,0.071,0.722,0.071
			c1.06,0,1.695-0.523,1.695-1.433c0-0.905-0.635-1.335-1.6-1.335c-0.376,0-0.67,0.043-0.817,0.071V34.96z"/>
		<rect x="170.743" y="31.621" fill="#616264" width="0.885" height="6.757"/>
		<polygon fill="#616264" points="173.139,31.623 174.02,31.623 174.02,37.649 176.906,37.649 176.906,38.38 173.139,38.38 		"/>
		<polygon fill="#616264" points="181.368,35.211 178.749,35.211 178.749,37.648 181.678,37.648 181.678,38.379 177.871,38.379 
			177.871,31.621 181.527,31.621 181.527,32.354 178.749,32.354 178.749,34.49 181.368,34.49 		"/>
		<path fill="#616264" d="M182.812,31.723c0.441-0.092,1.084-0.151,1.672-0.151c0.933,0,1.545,0.18,1.965,0.56
			c0.334,0.293,0.533,0.754,0.533,1.287c0,0.881-0.569,1.47-1.274,1.712v0.027c0.514,0.184,0.823,0.666,0.994,1.369
			c0.22,0.94,0.379,1.595,0.514,1.852h-0.909c-0.108-0.192-0.254-0.773-0.441-1.612c-0.202-0.934-0.567-1.287-1.362-1.315h-0.821
			v2.927h-0.873V31.723z M183.685,34.792h0.894c0.93,0,1.524-0.516,1.524-1.283c0-0.873-0.633-1.256-1.558-1.256
			c-0.416,0-0.71,0.04-0.859,0.082V34.792z"/>
		<path fill="#616264" d="M188.092,37.318c0.392,0.251,0.954,0.441,1.558,0.441c0.89,0,1.414-0.462,1.414-1.152
			c0-0.623-0.365-0.994-1.274-1.334c-1.108-0.401-1.788-0.986-1.788-1.925c0-1.056,0.875-1.836,2.186-1.836
			c0.682,0,1.193,0.16,1.488,0.331l-0.245,0.711c-0.209-0.131-0.659-0.319-1.271-0.319c-0.925,0-1.274,0.552-1.274,1.009
			c0,0.634,0.41,0.945,1.345,1.306c1.141,0.45,1.713,0.993,1.713,1.985c0,1.042-0.764,1.954-2.354,1.954
			c-0.655,0-1.369-0.198-1.73-0.439L188.092,37.318z"/>
		<path fill="#616264" d="M201.649,31.723c0.386-0.091,0.996-0.151,1.596-0.151c0.869,0,1.435,0.151,1.842,0.493
			c0.355,0.259,0.573,0.66,0.573,1.192c0,0.66-0.441,1.231-1.143,1.482v0.033c0.64,0.144,1.393,0.679,1.393,1.681
			c0,0.58-0.229,1.024-0.577,1.355c-0.466,0.429-1.228,0.631-2.33,0.631c-0.6,0-1.063-0.04-1.354-0.079V31.723z M202.521,34.488
			h0.793c0.913,0,1.454-0.491,1.454-1.14c0-0.783-0.593-1.104-1.471-1.104c-0.401,0-0.635,0.028-0.775,0.061V34.488z
			 M202.521,37.719c0.18,0.029,0.42,0.039,0.731,0.039c0.901,0,1.736-0.33,1.736-1.311c0-0.914-0.793-1.306-1.744-1.306h-0.723
			V37.719z"/>
		<path fill="#616264" d="M209.721,38.489c-1.794,0-3.039-1.381-3.039-3.428c0-2.145,1.325-3.547,3.131-3.547
			c1.851,0,3.049,1.41,3.049,3.418c0,2.319-1.418,3.558-3.131,3.558H209.721z M209.761,37.777c1.383,0,2.164-1.275,2.164-2.807
			c0-1.343-0.702-2.745-2.156-2.745c-1.453,0-2.173,1.353-2.173,2.815c0,1.425,0.781,2.737,2.152,2.737H209.761z"/>
		<path fill="#616264" d="M216.627,38.489c-1.788,0-3.034-1.381-3.034-3.428c0-2.145,1.322-3.547,3.122-3.547
			c1.858,0,3.051,1.41,3.051,3.418c0,2.319-1.414,3.558-3.13,3.558H216.627z M216.67,37.777c1.381,0,2.167-1.275,2.167-2.807
			c0-1.343-0.707-2.745-2.161-2.745c-1.454,0-2.176,1.353-2.176,2.815c0,1.425,0.787,2.737,2.158,2.737H216.67z"/>
		<path fill="#616264" d="M220.9,31.623h0.875v3.258h0.027c0.175-0.261,0.362-0.5,0.531-0.72l2.066-2.538h1.083l-2.446,2.867
			l2.636,3.891h-1.03l-2.217-3.321l-0.648,0.742v2.58H220.9V31.623z"/>
		<path fill="#616264" d="M226.223,37.318c0.388,0.251,0.952,0.441,1.552,0.441c0.894,0,1.417-0.462,1.417-1.152
			c0-0.623-0.363-0.994-1.276-1.334c-1.101-0.401-1.784-0.986-1.784-1.925c0-1.056,0.875-1.836,2.185-1.836
			c0.68,0,1.193,0.16,1.485,0.331l-0.242,0.711c-0.208-0.131-0.662-0.319-1.27-0.319c-0.922,0-1.274,0.552-1.274,1.009
			c0,0.634,0.413,0.945,1.34,1.306c1.144,0.45,1.717,0.993,1.717,1.985c0,1.042-0.763,1.954-2.354,1.954
			c-0.659,0-1.366-0.198-1.727-0.439L226.223,37.318z"/>
	</g>
	<g>
		<path fill="#ED1C24" stroke="#ED1C24" stroke-width="0.15" d="M123,53.848c0,0.096-0.052,0.176-0.158,0.242
			c-0.107,0.066-0.218,0.091-0.334,0.076c-0.139-0.015-0.267-0.084-0.383-0.208c-0.116-0.123-0.175-0.258-0.175-0.405
			c0-0.131,0.037-0.25,0.115-0.356c0.076-0.106,0.17-0.159,0.279-0.159c0.167,0,0.319,0.086,0.454,0.258
			C122.933,53.467,123,53.651,123,53.848z"/>
		<path fill="#ED1C24" stroke="#ED1C24" stroke-width="0.15" d="M128.771,53.848c0,0.096-0.053,0.176-0.16,0.242
			c-0.105,0.066-0.216,0.091-0.333,0.076c-0.139-0.015-0.266-0.084-0.384-0.208c-0.117-0.123-0.175-0.258-0.175-0.405
			c0-0.131,0.039-0.25,0.115-0.356c0.076-0.106,0.17-0.159,0.279-0.159c0.168,0,0.32,0.086,0.454,0.258
			C128.703,53.467,128.771,53.651,128.771,53.848z"/>
		<path fill="#ED1C24" stroke="#ED1C24" stroke-width="0.15" d="M134.54,53.848c0,0.096-0.052,0.176-0.158,0.242
			c-0.107,0.066-0.218,0.091-0.334,0.076c-0.139-0.015-0.267-0.084-0.384-0.208c-0.116-0.123-0.175-0.258-0.175-0.405
			c0-0.131,0.037-0.25,0.115-0.356c0.076-0.106,0.17-0.159,0.279-0.159c0.167,0,0.32,0.086,0.454,0.258
			C134.473,53.467,134.54,53.651,134.54,53.848z"/>
		<path fill="#ED1C24" stroke="#ED1C24" stroke-width="0.15" d="M147.076,53.75c0.008,0.029,0.011,0.076,0.011,0.142
			c0,0.124-0.069,0.179-0.208,0.164c-0.057-0.007-0.131-0.069-0.219-0.186c-0.087-0.116-0.174-0.237-0.262-0.362
			c-0.095-0.108-0.198-0.198-0.306-0.267c-0.11-0.07-0.213-0.104-0.306-0.104c-0.118,0-0.242,0.048-0.373,0.142
			c-0.036,0.029-0.168,0.143-0.394,0.339c-0.19,0.168-0.325,0.282-0.405,0.34c-0.168,0.11-0.333,0.164-0.493,0.164
			c-0.182,0-0.42-0.186-0.711-0.557c-0.074-0.096-0.23-0.303-0.47-0.624c-0.183-0.242-0.343-0.424-0.483-0.548
			c-0.175-0.16-0.339-0.241-0.493-0.241c-0.182,0-0.386,0.091-0.612,0.274c-0.168,0.138-0.362,0.339-0.58,0.601
			c-0.315,0.394-0.523,0.635-0.625,0.723c-0.241,0.219-0.5,0.327-0.776,0.327c-0.306,0-0.581-0.273-0.822-0.821
			c-0.211-0.481-0.317-0.952-0.317-1.413v-0.186c0-0.139,0.016-0.249,0.049-0.329c0.032-0.08,0.104-0.12,0.214-0.12
			c0.094,0,0.166,0.072,0.213,0.214c0.048,0.142,0.071,0.305,0.071,0.487c0,0.351,0.067,0.698,0.198,1.041
			c0.131,0.344,0.278,0.515,0.439,0.515c0.203,0,0.397-0.095,0.58-0.285c0.036-0.036,0.192-0.241,0.47-0.614
			c0.219-0.291,0.43-0.504,0.635-0.635c0.285-0.19,0.613-0.285,0.985-0.285c0.219,0,0.446,0.095,0.679,0.285
			c0.168,0.139,0.366,0.35,0.592,0.635c0.167,0.219,0.335,0.43,0.504,0.635c0.167,0.205,0.299,0.306,0.393,0.306
			c0.08,0,0.19-0.051,0.329-0.152c0.183-0.146,0.321-0.255,0.417-0.329c0.146-0.11,0.27-0.193,0.372-0.251
			c0.146-0.08,0.291-0.12,0.438-0.12c0.262,0,0.54,0.138,0.831,0.416C146.908,53.326,147.055,53.552,147.076,53.75z"/>
		<path fill="#ED1C24" stroke="#ED1C24" stroke-width="0.15" d="M153.35,54.351c0,0.066-0.042,0.114-0.126,0.143
			c-0.083,0.029-0.203,0.044-0.355,0.044c-0.19,0-0.372-0.132-0.548-0.394c-0.087-0.139-0.175-0.278-0.262-0.417
			c-0.059-0.072-0.114-0.15-0.164-0.23c-0.11-0.138-0.213-0.207-0.306-0.207c-0.052,0-0.139,0.044-0.263,0.131
			c-0.124,0.088-0.242,0.172-0.35,0.253c-0.11,0.065-0.186,0.112-0.23,0.142c-0.183,0.102-0.358,0.154-0.525,0.154
			c-0.424,0-0.753-0.128-0.986-0.383c-0.16-0.175-0.241-0.343-0.241-0.504c0-0.438,0.211-0.799,0.635-1.084
			c0.358-0.241,0.702-0.361,1.029-0.361c0.19,0,0.369,0.055,0.536,0.164c0.168,0.11,0.253,0.215,0.253,0.317
			c0,0.103-0.015,0.16-0.044,0.175c-0.029,0.015-0.087,0.023-0.175,0.023c-0.057,0-0.131-0.037-0.218-0.11
			c-0.088-0.073-0.195-0.11-0.318-0.11c-0.285,0-0.549,0.093-0.794,0.279c-0.245,0.186-0.366,0.396-0.366,0.63
			c0,0.131,0.04,0.245,0.12,0.339c0.123,0.139,0.299,0.207,0.525,0.207c0.102,0,0.215-0.032,0.34-0.098
			c0.065-0.029,0.167-0.092,0.306-0.187c0.168-0.123,0.289-0.207,0.361-0.251c0.132-0.088,0.249-0.131,0.35-0.131
			c0.132,0,0.254,0.023,0.367,0.071c0.114,0.047,0.239,0.151,0.378,0.311c0.102,0.11,0.222,0.303,0.361,0.58
			c0.11,0.213,0.201,0.318,0.274,0.318C153.204,54.166,153.35,54.229,153.35,54.351z"/>
		<path fill="#ED1C24" stroke="#ED1C24" stroke-width="0.15" d="M159.524,53.794c0,0.051,0,0.102,0,0.152
			c-0.013,0.073-0.11,0.11-0.283,0.11c-0.147,0-0.333-0.051-0.559-0.152c-0.124-0.059-0.238-0.118-0.339-0.176
			c-0.176-0.102-0.313-0.195-0.412-0.278c-0.098-0.084-0.179-0.174-0.246-0.269c-0.101-0.146-0.175-0.263-0.219-0.35
			c-0.08-0.162-0.116-0.285-0.11-0.373c-0.116,0.029-0.226,0.19-0.327,0.482c-0.059,0.19-0.099,0.314-0.122,0.372
			c-0.11,0.314-0.23,0.533-0.361,0.657c-0.168,0.161-0.398,0.241-0.69,0.241c-0.16,0-0.289-0.046-0.382-0.138
			c-0.096-0.091-0.166-0.213-0.209-0.366c-0.124-0.379-0.219-0.676-0.285-0.893c-0.065-0.215-0.106-0.366-0.12-0.454
			c-0.132-0.692-0.277-1.544-0.433-2.55c-0.156-1.008-0.235-1.562-0.235-1.665c0-0.072,0.015-0.116,0.044-0.131
			c0.029-0.015,0.091-0.021,0.186-0.021h0.12c0.044,0,0.087,0.087,0.132,0.262c0.043,0.176,0.116,0.613,0.218,1.315
			c0.059,0.386,0.122,0.775,0.186,1.165c0.067,0.39,0.148,0.826,0.247,1.309c0.098,0.481,0.211,0.89,0.34,1.226
			c0.127,0.337,0.239,0.504,0.333,0.504c0.139,0,0.267-0.154,0.385-0.46c0.093-0.27,0.167-0.481,0.218-0.635
			c0.088-0.234,0.143-0.372,0.164-0.416c0.088-0.146,0.2-0.219,0.339-0.219c0.088,0,0.208-0.011,0.361-0.033
			c0.154-0.021,0.291-0.043,0.412-0.066c0.12-0.021,0.281-0.044,0.481-0.065c0.201-0.021,0.337-0.033,0.41-0.033
			c0.103,0,0.175,0.037,0.219,0.11c0.023,0.037,0.029,0.08,0.023,0.132c-0.008,0.058-0.172,0.12-0.493,0.186
			c-0.139,0.029-0.416,0.076-0.833,0.142c0.139,0.198,0.286,0.374,0.444,0.532c0.158,0.157,0.323,0.286,0.498,0.389
			c0.072,0.043,0.262,0.127,0.569,0.251C159.415,53.674,159.524,53.742,159.524,53.794z"/>
		<path fill="#ED1C24" stroke="#ED1C24" stroke-width="0.15" d="M161.441,49.94c0,0.021-0.027,0.036-0.082,0.044
			c-0.055,0.007-0.089,0.011-0.104,0.011c-0.11,0.015-0.242-0.048-0.4-0.186c-0.158-0.139-0.225-0.263-0.203-0.373
			c0.008-0.044,0.028-0.082,0.062-0.115c0.032-0.032,0.071-0.052,0.115-0.06c0.102-0.015,0.251,0.099,0.449,0.34
			C161.386,49.739,161.441,49.851,161.441,49.94z M162.251,53.727c0,0.118-0.017,0.194-0.053,0.23
			c-0.037,0.037-0.099,0.055-0.187,0.055c-0.16,0-0.31-0.167-0.449-0.502c-0.139-0.337-0.207-0.643-0.207-0.921
			c0-0.08,0.001-0.178,0.005-0.295c0.004-0.116,0.045-0.186,0.126-0.207c0.073-0.015,0.132,0.012,0.18,0.082
			c0.048,0.07,0.086,0.199,0.115,0.389c0.029,0.19,0.115,0.425,0.258,0.706C162.18,53.543,162.251,53.699,162.251,53.727z"/>
		<path fill="#ED1C24" stroke="#ED1C24" stroke-width="0.15" d="M169.652,53.881c0,0.154-0.222,0.23-0.668,0.23
			c-0.241,0-0.46-0.095-0.656-0.285c-0.095-0.095-0.19-0.19-0.285-0.285c-0.059-0.051-0.198-0.194-0.417-0.426
			c-0.123-0.132-0.222-0.198-0.294-0.198c-0.11,0-0.278,0.074-0.505,0.219c-0.101,0.066-0.226,0.154-0.372,0.263
			c-0.198,0.152-0.39,0.306-0.58,0.46c-0.278,0.197-0.537,0.295-0.778,0.295c-0.358,0-0.668-0.263-0.93-0.789
			c-0.234-0.466-0.35-0.924-0.35-1.369c0-0.051,0.025-0.107,0.076-0.17c0.052-0.062,0.11-0.096,0.175-0.104
			c0.059-0.007,0.112,0.013,0.159,0.06c0.047,0.048,0.082,0.176,0.104,0.384c0.021,0.208,0.106,0.48,0.251,0.815
			c0.183,0.432,0.373,0.647,0.569,0.647c0.103,0,0.223-0.04,0.362-0.122c0.007-0.007,0.214-0.163,0.623-0.47
			c0.358-0.27,0.578-0.43,0.658-0.481c0.241-0.16,0.428-0.241,0.559-0.241c0.139,0,0.34,0.15,0.601,0.449
			c0.168,0.196,0.314,0.346,0.438,0.448c0.154,0.154,0.267,0.263,0.339,0.329c0.139,0.124,0.249,0.186,0.329,0.186h0.197
			c0.124,0,0.221,0.009,0.29,0.028C169.618,53.774,169.652,53.816,169.652,53.881z"/>
		<path fill="#ED1C24" stroke="#ED1C24" stroke-width="0.15" d="M174.009,53.356c-0.029-0.051-0.088-0.1-0.175-0.148
			c-0.087-0.047-0.154-0.071-0.196-0.071c-0.051,0-0.142,0.044-0.269,0.131c-0.127,0.088-0.247,0.172-0.356,0.253
			c-0.124,0.072-0.25,0.14-0.378,0.202c-0.128,0.063-0.261,0.094-0.4,0.094c-0.321,0-0.587-0.08-0.799-0.241
			c-0.255-0.198-0.384-0.413-0.384-0.647c0-0.43,0.227-0.791,0.679-1.084c0.373-0.241,0.727-0.361,1.063-0.361
			c0.19,0,0.365,0.055,0.525,0.164c0.161,0.11,0.241,0.222,0.241,0.339c0,0.095-0.016,0.147-0.048,0.159
			c-0.033,0.011-0.093,0.016-0.182,0.016c-0.051,0-0.12-0.036-0.209-0.11c-0.087-0.074-0.192-0.11-0.317-0.11
			c-0.293,0-0.565,0.094-0.821,0.279c-0.255,0.186-0.384,0.396-0.384,0.629c0,0.183,0.059,0.319,0.175,0.41
			c0.116,0.091,0.263,0.138,0.438,0.138c0.095,0,0.195-0.028,0.301-0.083c0.106-0.055,0.229-0.122,0.366-0.202
			c0.176-0.124,0.299-0.208,0.373-0.253c0.131-0.087,0.247-0.131,0.35-0.131c0.35,0,0.603,0.127,0.755,0.384
			c0.219,0.386,0.366,0.662,0.439,0.826c0.072,0.164,0.142,0.349,0.208,0.553c0.249,0.803,0.47,1.589,0.668,2.359
			c0.197,0.77,0.294,1.262,0.294,1.473c0,0.146-0.036,0.237-0.11,0.274c-0.072,0.036-0.19,0.055-0.35,0.055
			c-0.219,0-0.531-0.097-0.936-0.29c-0.405-0.194-0.834-0.452-1.286-0.773c-0.65-0.466-1.081-0.806-1.292-1.018
			c-0.46-0.466-0.69-0.941-0.69-1.423c0-0.11,0.045-0.275,0.136-0.497c0.092-0.223,0.195-0.334,0.313-0.334
			c0.051,0,0.076,0.058,0.076,0.175c-0.036,0.204-0.069,0.409-0.099,0.613c0,0.226,0.118,0.496,0.35,0.81
			c0.27,0.365,0.687,0.759,1.248,1.183c0.373,0.277,0.751,0.521,1.133,0.732c0.384,0.213,0.652,0.318,0.805,0.318
			c0.118,0,0.179-0.036,0.187-0.11c0-0.124-0.08-0.521-0.241-1.194c-0.162-0.671-0.326-1.303-0.493-1.894
			c-0.124-0.424-0.259-0.781-0.405-1.073C174.214,53.67,174.111,53.495,174.009,53.356z"/>
		<path fill="#ED1C24" stroke="#ED1C24" stroke-width="0.15" d="M182.988,49.94c0,0.021-0.028,0.036-0.083,0.044
			c-0.055,0.007-0.088,0.011-0.104,0.011c-0.11,0.015-0.242-0.048-0.398-0.186c-0.158-0.139-0.225-0.263-0.203-0.373
			c0.008-0.044,0.027-0.082,0.06-0.115c0.033-0.032,0.071-0.052,0.115-0.06c0.103-0.015,0.253,0.099,0.449,0.34
			C182.933,49.739,182.988,49.851,182.988,49.94z M183.798,53.727c0,0.118-0.019,0.194-0.055,0.23
			c-0.036,0.037-0.099,0.055-0.186,0.055c-0.16,0-0.31-0.167-0.449-0.502c-0.139-0.337-0.208-0.643-0.208-0.921
			c0-0.08,0.003-0.178,0.005-0.295c0.004-0.116,0.045-0.186,0.126-0.207c0.074-0.015,0.134,0.012,0.182,0.082
			c0.047,0.07,0.086,0.199,0.115,0.389c0.029,0.19,0.115,0.425,0.257,0.706C183.727,53.543,183.798,53.699,183.798,53.727z"/>
		<path fill="#ED1C24" stroke="#ED1C24" stroke-width="0.15" d="M189.174,51.56c0,0.103-0.031,0.162-0.093,0.176
			c-0.062,0.013-0.139,0.021-0.235,0.021c-0.08,0-0.211-0.015-0.393-0.044c-0.46-0.074-0.717-0.11-0.767-0.11
			c-0.044,0-0.194,0.033-0.449,0.099c-0.139,0.036-0.245,0.055-0.318,0.055c0.067,0.336,0.168,0.714,0.307,1.133
			c0.139,0.42,0.255,0.676,0.35,0.771c0.044,0.044,0.135,0.095,0.274,0.154c0.138,0.059,0.207,0.116,0.207,0.175
			c0,0.103-0.035,0.172-0.104,0.208c-0.068,0.036-0.195,0.055-0.377,0.055c-0.27,0-0.548-0.42-0.831-1.259
			c-0.126-0.358-0.219-0.698-0.286-1.018c-0.11,0.029-0.295,0.135-0.557,0.317c-0.118,0.08-0.194,0.12-0.231,0.12
			c-0.131,0-0.196-0.058-0.196-0.175c0-0.152,0.099-0.31,0.295-0.47c0.168-0.124,0.34-0.251,0.516-0.384
			c-0.059-0.314-0.112-0.69-0.16-1.127c-0.047-0.438-0.069-0.869-0.069-1.292c0-0.131-0.003-0.265-0.007-0.4
			c-0.004-0.135-0.005-0.273-0.005-0.41c0-0.234,0.013-0.41,0.039-0.532c0.025-0.12,0.078-0.18,0.158-0.18
			c0.132,0,0.216,0.154,0.253,0.46c0.036,0.307,0.055,0.738,0.055,1.292c0,0.183,0.025,0.464,0.077,0.843
			c0.051,0.38,0.112,0.777,0.184,1.194c0.088,0,0.223-0.019,0.406-0.055c0.182-0.037,0.317-0.055,0.405-0.055
			c0.394,0,0.753,0.047,1.073,0.142C189.013,51.359,189.174,51.458,189.174,51.56z"/>
		<path fill="#ED1C24" stroke="#ED1C24" stroke-width="0.15" d="M200.66,54.801c0,0.255-0.178,0.46-0.532,0.613
			c-0.354,0.154-0.754,0.23-1.199,0.23c-0.628,0-1.169-0.099-1.627-0.295c-0.456-0.198-0.684-0.468-0.684-0.81
			c0-0.132,0.021-0.243,0.062-0.334c0.04-0.092,0.115-0.14,0.225-0.148c0.123,0,0.186,0.066,0.186,0.198
			c-0.008,0.101-0.012,0.175-0.012,0.219c0,0.19,0.202,0.353,0.603,0.492c0.402,0.139,0.782,0.208,1.139,0.208
			c0.322,0,0.588-0.025,0.799-0.077c0.293-0.072,0.438-0.178,0.438-0.317c0-0.175-0.253-0.398-0.755-0.668
			c-0.286-0.146-0.567-0.295-0.843-0.449c-0.373-0.218-0.691-0.471-0.953-0.755c-0.329-0.365-0.492-0.723-0.492-1.073
			c0-0.161,0.094-0.293,0.283-0.4c0.19-0.105,0.46-0.159,0.81-0.159c0.155,0,0.323,0.047,0.511,0.138
			c0.186,0.091,0.278,0.206,0.278,0.345c0,0.16-0.008,0.249-0.027,0.262c-0.019,0.016-0.075,0.023-0.17,0.023
			c-0.08,0-0.164-0.048-0.253-0.143c-0.087-0.095-0.207-0.142-0.361-0.142c-0.196,0-0.346,0.051-0.449,0.152
			c-0.029,0.029-0.062,0.081-0.099,0.154c0.016,0.118,0.152,0.309,0.412,0.575c0.259,0.267,0.553,0.498,0.882,0.696
			c0.73,0.43,1.137,0.675,1.226,0.732C200.458,54.345,200.66,54.589,200.66,54.801z"/>
		<path fill="#ED1C24" stroke="#ED1C24" stroke-width="0.15" d="M202.366,49.94c0,0.021-0.027,0.036-0.082,0.044
			c-0.055,0.007-0.09,0.011-0.104,0.011c-0.11,0.015-0.243-0.048-0.4-0.186c-0.156-0.139-0.225-0.263-0.202-0.373
			c0.007-0.044,0.027-0.082,0.059-0.115c0.034-0.032,0.072-0.052,0.115-0.06c0.103-0.015,0.253,0.099,0.449,0.34
			C202.312,49.739,202.366,49.851,202.366,49.94z M203.178,53.727c0,0.118-0.019,0.194-0.056,0.23
			c-0.036,0.037-0.097,0.055-0.186,0.055c-0.16,0-0.31-0.167-0.448-0.502c-0.139-0.337-0.209-0.643-0.209-0.921
			c0-0.08,0.001-0.178,0.005-0.295c0.003-0.116,0.045-0.186,0.126-0.207c0.072-0.015,0.134,0.012,0.18,0.082
			c0.047,0.07,0.085,0.199,0.115,0.389c0.029,0.19,0.115,0.425,0.258,0.706C203.105,53.543,203.178,53.699,203.178,53.727z"/>
		<path fill="#ED1C24" stroke="#ED1C24" stroke-width="0.15" d="M214.137,53.75c0.007,0.029,0.011,0.076,0.011,0.142
			c0,0.124-0.07,0.179-0.209,0.164c-0.059-0.007-0.131-0.069-0.219-0.186c-0.088-0.116-0.175-0.237-0.262-0.362
			c-0.096-0.108-0.198-0.198-0.307-0.267c-0.11-0.07-0.211-0.104-0.306-0.104c-0.116,0-0.242,0.048-0.373,0.142
			c-0.036,0.029-0.168,0.143-0.393,0.339c-0.19,0.168-0.326,0.282-0.406,0.34c-0.168,0.11-0.331,0.164-0.492,0.164
			c-0.183,0-0.42-0.186-0.712-0.557c-0.074-0.096-0.23-0.303-0.47-0.624c-0.183-0.242-0.344-0.424-0.483-0.548
			c-0.174-0.16-0.339-0.241-0.492-0.241c-0.182,0-0.387,0.091-0.613,0.274c-0.167,0.138-0.361,0.339-0.58,0.601
			c-0.314,0.394-0.523,0.635-0.624,0.723c-0.241,0.219-0.5,0.327-0.778,0.327c-0.306,0-0.58-0.273-0.821-0.821
			c-0.211-0.481-0.318-0.952-0.318-1.413v-0.186c0-0.139,0.016-0.249,0.049-0.329c0.033-0.08,0.104-0.12,0.214-0.12
			c0.095,0,0.166,0.072,0.214,0.214c0.047,0.142,0.071,0.305,0.071,0.487c0,0.351,0.065,0.698,0.198,1.041
			c0.131,0.344,0.277,0.515,0.437,0.515c0.205,0,0.398-0.095,0.58-0.285c0.036-0.036,0.194-0.241,0.472-0.614
			c0.219-0.291,0.43-0.504,0.635-0.635c0.285-0.19,0.613-0.285,0.985-0.285c0.219,0,0.445,0.095,0.679,0.285
			c0.168,0.139,0.365,0.35,0.591,0.635c0.168,0.219,0.337,0.43,0.504,0.635c0.167,0.205,0.299,0.306,0.394,0.306
			c0.08,0,0.19-0.051,0.329-0.152c0.182-0.146,0.321-0.255,0.416-0.329c0.146-0.11,0.27-0.193,0.373-0.251
			c0.146-0.08,0.291-0.12,0.437-0.12c0.263,0,0.541,0.138,0.833,0.416C213.969,53.326,214.114,53.552,214.137,53.75z"/>
		<path fill="#ED1C24" stroke="#ED1C24" stroke-width="0.15" d="M219.994,52.019c0,0.556-0.245,1.103-0.734,1.643
			c-0.453,0.504-1.055,0.934-1.806,1.292c0.058,0.329,0.115,0.646,0.168,0.953c0.056,0.306,0.134,0.682,0.236,1.127
			c0.058,0.234,0.135,0.504,0.23,0.811c0.072,0.241,0.106,0.386,0.098,0.437c0,0.11-0.011,0.192-0.032,0.247
			c-0.021,0.055-0.091,0.082-0.208,0.082c-0.08,0-0.179-0.166-0.295-0.499c-0.116-0.331-0.23-0.742-0.34-1.231
			c-0.154-0.672-0.281-1.369-0.384-2.092c-0.102-0.723-0.152-1.333-0.152-1.828c0-0.154,0.036-0.259,0.11-0.318
			c0.123-0.051,0.226-0.095,0.306-0.131c0-0.321,0.15-0.646,0.449-0.974c0.373-0.409,0.835-0.613,1.39-0.613
			c0.314,0,0.559,0.114,0.734,0.34C219.917,51.462,219.994,51.713,219.994,52.019z M219.468,52.063c0-0.182-0.025-0.321-0.076-0.416
			c-0.074-0.139-0.219-0.208-0.438-0.208c-0.424,0-0.833,0.208-1.227,0.624c-0.167,0.219-0.331,0.439-0.492,0.658l0.131,1.752
			c0.641-0.358,1.147-0.734,1.51-1.128C219.272,52.915,219.468,52.487,219.468,52.063z"/>
		<path fill="#ED1C24" stroke="#ED1C24" stroke-width="0.15" d="M222.633,54.166c0,0.066-0.044,0.099-0.132,0.099
			c-0.102,0-0.23-0.11-0.382-0.329c-0.19-0.27-0.328-0.581-0.412-0.936c-0.083-0.354-0.146-0.672-0.186-0.953
			c-0.04-0.281-0.06-0.63-0.06-1.045v-0.504c0-1.029-0.036-1.756-0.11-2.179c-0.036-0.176-0.077-0.318-0.126-0.428
			c-0.048-0.11-0.089-0.2-0.126-0.274c0-0.058,0.003-0.131,0.011-0.218c0.008-0.088,0.051-0.132,0.131-0.132
			c0.16,0,0.302,0.098,0.422,0.29c0.12,0.194,0.197,0.414,0.23,0.663c0.032,0.249,0.052,0.496,0.06,0.744
			c0.007,0.249,0.011,0.533,0.011,0.854v0.186v0.154v0.12c0,0.124-0.001,0.23-0.005,0.318c-0.004,0.087-0.005,0.16-0.005,0.218
			c0,0.278,0.027,0.619,0.081,1.024c0.055,0.405,0.112,0.762,0.17,1.068c0.059,0.307,0.132,0.569,0.219,0.788
			C222.49,53.856,222.56,54.012,222.633,54.166z"/>
		<path fill="#ED1C24" stroke="#ED1C24" stroke-width="0.15" d="M229.234,53.641l-1.423,0.371c-0.342,0.088-0.572,0.139-0.69,0.154
			c-0.277,0.044-0.645,0.066-1.105,0.066c-0.38,0-0.698-0.066-0.953-0.197c-0.131-0.066-0.31-0.204-0.536-0.417
			c-0.103,0.059-0.198,0.112-0.285,0.159c-0.088,0.048-0.183,0.089-0.285,0.127c-0.065,0.028-0.123,0.012-0.17-0.049
			c-0.048-0.063-0.072-0.134-0.072-0.214c0-0.066,0.019-0.103,0.056-0.11c0.08-0.029,0.16-0.063,0.241-0.099
			c0.241-0.116,0.369-0.178,0.382-0.186c-0.057-0.116-0.097-0.249-0.12-0.394c-0.021-0.146-0.032-0.299-0.032-0.46
			c0-0.379,0.13-0.699,0.388-0.958c0.259-0.259,0.532-0.389,0.817-0.389c0.234,0,0.437,0.078,0.613,0.23
			c0.203,0.183,0.306,0.432,0.306,0.744c0,0.249-0.19,0.529-0.569,0.843c-0.16,0.132-0.416,0.318-0.766,0.559
			c0.146,0.131,0.287,0.226,0.426,0.285c0.196,0.088,0.413,0.131,0.646,0.131c0.46,0,0.77-0.008,0.932-0.027
			c0.16-0.019,0.421-0.08,0.782-0.186c0.362-0.107,0.608-0.178,0.739-0.214c0.204-0.059,0.373-0.099,0.504-0.12
			c0.118-0.023,0.208-0.015,0.274,0.021c0.065,0.036,0.099,0.084,0.099,0.143C229.432,53.535,229.366,53.596,229.234,53.641z
			 M225.884,51.977c-0.013-0.147-0.057-0.263-0.131-0.35c-0.072-0.088-0.186-0.132-0.339-0.132c-0.196,0-0.365,0.084-0.502,0.253
			c-0.139,0.167-0.208,0.361-0.208,0.58c0,0.131,0.001,0.257,0.005,0.377c0.004,0.122,0.037,0.237,0.104,0.345
			c0.329-0.19,0.589-0.377,0.782-0.563C225.787,52.299,225.884,52.129,225.884,51.977z"/>
	</g>
</g>
</svg>
